<svg xmlns="http://www.w3.org/2000/svg" width="145.619" height="41.804" viewBox="0 0 145.619 41.804"><defs><style>.a{fill:#fbfcfd;}</style></defs><path class="a" d="M170.868,17.108v-4.3H169.8l-1.166,2.952-1.173-2.952H166.4v4.3h.754V13.789l1.321,3.319h.322l1.315-3.319v3.319Z" transform="translate(-25.249 -1.944)"/><path class="a" d="M81.841,13.249a1.229,1.229,0,0,0-1.223,1.224,1.208,1.208,0,0,0,1.223,1.2,1.188,1.188,0,0,0,1.2-1.2A1.209,1.209,0,0,0,81.841,13.249Z" transform="translate(-12.232 -2.01)"/><path class="a" d="M93.06,17.718a4.844,4.844,0,0,0-3.911,2.015V18.006h-1.8v16h1.8V27.843a4.844,4.844,0,0,0,3.911,2.039c3.047,0,5.158-2.351,5.158-6.094C98.218,20.022,96.106,17.718,93.06,17.718ZM92.6,28.275A4.3,4.3,0,0,1,89.149,26.4v-5.23A4.283,4.283,0,0,1,92.6,19.325c2.328,0,3.72,1.9,3.72,4.463S94.931,28.275,92.6,28.275Z" transform="translate(-13.254 -2.688)"/><rect class="a" width="1.799" height="11.588" transform="translate(68.697 15.318)"/><path class="a" d="M106.712,21.035a3.351,3.351,0,0,1,2.64-1.344c1.3,0,2.135.5,2.135,2.111v7.054h3.047V20.627c0-2.256-1.223-3.648-3.767-3.648a5.38,5.38,0,0,0-4.055,1.775v-5.9h-3.071v16h3.071Z" transform="translate(-15.726 -1.95)"/><path class="a" d="M36.272,10.473a1.987,1.987,0,0,0-.736-.758L19.268.27a1.99,1.99,0,0,0-2,0L1,9.714a2,2,0,0,0-.736.757h0A2.016,2.016,0,0,0,0,11.458V30.347a2.017,2.017,0,0,0,1,1.744l16.266,9.445a1.991,1.991,0,0,0,2,0L35.535,32.09a2.018,2.018,0,0,0,1-1.743V11.457a2.005,2.005,0,0,0-.26-.986Zm-4.4,7.733c0,.629-.44.886-.979.573l-11.644-6.8a2.151,2.151,0,0,0-1.959,0l-3.048,1.78a.606.606,0,0,0,0,1.143L30.891,24.62a2.2,2.2,0,0,1,.979,1.715v1.3a2.2,2.2,0,0,1-.979,1.713l-11.644,6.8a2.151,2.151,0,0,1-1.959,0l-11.644-6.8a2.2,2.2,0,0,1-.98-1.713V23.6c0-.629.441-.885.98-.572l11.644,6.8a2.157,2.157,0,0,0,1.959,0l3.048-1.779a.607.607,0,0,0,0-1.144L5.644,17.184a2.2,2.2,0,0,1-.98-1.714v-1.3a2.2,2.2,0,0,1,.98-1.714l11.644-6.8a2.157,2.157,0,0,1,1.959,0l11.645,6.8a2.194,2.194,0,0,1,.979,1.714Z"/><path class="a" d="M53.1,21.005c0-1.031.983-1.823,2.567-1.823a4.476,4.476,0,0,1,3.455,1.463l.84-1.248a5.782,5.782,0,0,0-4.295-1.68c-2.759,0-4.295,1.512-4.295,3.335,0,4.295,7.174,2.567,7.174,5.374,0,1.152-.983,1.992-2.759,1.992a5.25,5.25,0,0,1-3.816-1.656l-.912,1.3a6.219,6.219,0,0,0,4.679,1.823c2.975,0,4.535-1.559,4.535-3.5C60.274,21.869,53.1,23.524,53.1,21.005Z" transform="translate(-7.748 -2.688)"/><path class="a" d="M71.327,16.98A5.572,5.572,0,0,0,67.2,18.948V12.853H65.4v16h1.8V20.387a4.466,4.466,0,0,1,3.407-1.8c1.584,0,2.615.576,2.615,2.64v7.629h1.8V20.675C75.022,18.156,73.75,16.98,71.327,16.98Z" transform="translate(-9.924 -1.95)"/><path class="a" d="M162.993,17.108h.754V13.473h1.3v-.664h-3.358v.664h1.3Z" transform="translate(-24.534 -1.944)"/><path class="a" d="M142.624,20.694V17.718a5.082,5.082,0,0,0-3.7,1.848V18.006h-3.047V29.595h3.047V21.941a3.935,3.935,0,0,1,3.7-1.247Z" transform="translate(-20.618 -2.688)"/><path class="a" d="M156.8,23.788a6.13,6.13,0,0,0-12.26,0,6.13,6.13,0,0,0,12.26,0Zm-9.093,0c0-1.8,1.055-3.359,2.951-3.359,1.919,0,2.975,1.56,2.975,3.359,0,1.824-1.056,3.383-2.975,3.383C148.763,27.171,147.707,25.612,147.707,23.788Z" transform="translate(-21.932 -2.688)"/><path class="a" d="M125.222,17.718a5.912,5.912,0,0,0-6,6.07,5.869,5.869,0,0,0,6.191,6.094,7.221,7.221,0,0,0,4.774-1.607l-1.367-2.015a4.85,4.85,0,0,1-3.072,1.127,3.106,3.106,0,0,1-3.335-2.591h8.613v-.719C131.028,20.309,128.7,17.718,125.222,17.718Zm-2.831,4.967a2.885,2.885,0,0,1,5.71,0Z" transform="translate(-18.09 -2.688)"/></svg>